<svg width="340" height="56" viewBox="0 0 340 56" fill="none" xmlns="http://www.w3.org/2000/svg">
<rect x="27.5957" width="39.6371" height="39.026" rx="2.40652" transform="rotate(45 27.5957 0)" fill="white"/>
<path fill-rule="evenodd" clip-rule="evenodd" d="M47.0395 18.7658V10.6089C47.0395 9.79422 46.3672 9.11979 45.5525 9.11979H37.3946L47.0395 18.7658ZM37.3946 47.53H45.5525C46.3672 47.53 47.0395 46.8577 47.0395 46.043V37.8883L37.3946 47.53V47.53ZM18.2731 9.11979H10.1152C9.30374 9.11979 8.62827 9.79422 8.62827 10.6089V18.7658L18.2731 9.11979ZM7.49413 36.7509V46.043C7.49413 47.4846 8.67679 48.6673 10.1152 48.6673H19.4073L25.9778 55.2368C26.9986 56.2544 28.6734 56.2544 29.691 55.2368L36.2605 48.6673H45.5525C46.9941 48.6673 48.1769 47.4846 48.1769 46.043V36.7509L54.7474 30.1804C55.765 29.1606 55.765 27.488 54.7474 26.4715L48.1769 19.901V10.6089C48.1769 9.16727 46.9941 7.9846 45.5525 7.9846H36.2605L29.691 1.41402C28.6734 0.395363 26.9986 0.395363 25.9778 1.41402L19.4073 7.9846H10.1152C8.67679 7.9846 7.49413 9.16727 7.49413 10.6089V19.901L0.924626 26.4715C-0.0972711 27.488 -0.0972711 29.1606 0.924626 30.1804L7.49413 36.7509V36.7509ZM18.2731 47.53L8.62827 37.8883V46.043C8.62827 46.8577 9.30374 47.53 10.1152 47.53H18.2731V47.53ZM28.8871 2.21577L53.9435 27.2744C54.5186 27.8485 54.5186 28.8002 53.9435 29.3775L28.8871 54.434C28.313 55.008 27.3591 55.008 26.785 54.434L1.72749 29.3775C1.15018 28.8002 1.15018 27.8485 1.72749 27.2744L26.785 2.21577C27.3591 1.6417 28.313 1.6417 28.8871 2.21577" fill="#332D2A"/>
<path d="M18.7622 22.9988C18.7622 22.5902 19.0934 22.2591 19.5019 22.2591H24.2274C24.6359 22.2591 24.967 22.5902 24.967 22.9988V25.427H29.2869V22.9988C29.2869 22.5902 29.6179 22.2591 30.0264 22.2591H34.752C35.1604 22.2591 35.4915 22.5902 35.4915 22.9988V25.427H38.2406V18.8361C38.2406 18.2251 37.7453 17.7299 37.1344 17.7299H17.1194C16.5084 17.7299 16.0132 18.2251 16.0132 18.8361V25.427H18.7622V22.9988Z" fill="#332D2A"/>
<path d="M38.2402 26.0815L39.8695 29.9216C40.0716 30.3974 39.7222 30.9249 39.2055 30.9249H15.0476C14.5308 30.9249 14.1816 30.3974 14.3835 29.9216L16.0128 26.0815L13.0106 30.5428C12.843 30.7919 12.7534 31.0852 12.7534 31.3854V36.9726H14.9918V34.2499H39.2612V36.9726H41.4997V31.3854C41.4997 31.0852 41.4101 30.7919 41.2426 30.5428L38.2402 26.0815Z" fill="#332D2A"/>
<path d="M71.923 29.9125H79.248L79.298 31.15H71.8355L71.923 29.9125ZM73.3355 36.45C73.3355 36.6167 73.2772 36.75 73.1605 36.85C73.0439 36.95 72.8605 37 72.6105 37H68.6855C68.4355 37 68.2522 36.95 68.1355 36.85C68.0189 36.75 67.9605 36.6208 67.9605 36.4625C67.9605 36.3375 67.9939 36.2333 68.0605 36.15C68.1272 36.0667 68.248 35.9833 68.423 35.9L68.8355 35.7375C69.0855 35.6125 69.2814 35.45 69.423 35.25C69.573 35.0417 69.7272 34.6792 69.8855 34.1625L73.8855 21.8375C74.0022 21.4792 74.0314 21.2208 73.973 21.0625C73.923 20.8958 73.7522 20.7625 73.4605 20.6625C73.2355 20.5792 73.0772 20.4917 72.9855 20.4C72.9022 20.3 72.8605 20.1792 72.8605 20.0375C72.8605 19.8708 72.9189 19.7417 73.0355 19.65C73.1522 19.55 73.3355 19.5 73.5855 19.5H79.623C79.873 19.5 80.0564 19.55 80.173 19.65C80.2897 19.7417 80.348 19.8708 80.348 20.0375C80.348 20.1875 80.3022 20.3125 80.2105 20.4125C80.1272 20.5042 79.9814 20.5833 79.773 20.65C79.548 20.7167 79.4147 20.8125 79.373 20.9375C79.3314 21.0542 79.3564 21.25 79.448 21.525L83.748 34.525C83.873 34.9167 84.0105 35.2083 84.1605 35.4C84.3105 35.5917 84.5189 35.7292 84.7855 35.8125C85.0189 35.9042 85.173 35.9958 85.248 36.0875C85.3314 36.1792 85.373 36.3 85.373 36.45C85.373 36.6167 85.3105 36.75 85.1855 36.85C85.0689 36.95 84.8897 37 84.648 37H79.1355C78.8855 37 78.698 36.95 78.573 36.85C78.4564 36.75 78.398 36.6167 78.398 36.45C78.398 36.3167 78.4397 36.2083 78.523 36.125C78.6064 36.0333 78.7355 35.9583 78.9105 35.9L79.623 35.75C79.8397 35.6833 79.9439 35.5792 79.9355 35.4375C79.9355 35.2875 79.8855 35.05 79.7855 34.725L75.3355 20.9875L75.748 20.7125L71.4605 33.975C71.3522 34.325 71.298 34.6083 71.298 34.825C71.3064 35.0417 71.3814 35.2208 71.523 35.3625C71.6647 35.5042 71.8814 35.6333 72.173 35.75L72.823 35.9125C72.9897 35.9708 73.1147 36.0417 73.198 36.125C73.2897 36.2 73.3355 36.3083 73.3355 36.45ZM92.4457 37.0875H91.1832C90.9415 37.0875 90.7332 37.025 90.5582 36.9C90.3832 36.775 90.2415 36.5833 90.1332 36.325L86.4457 27.1625C86.3207 26.8542 86.2124 26.6458 86.1207 26.5375C86.0374 26.4292 85.9332 26.3583 85.8082 26.325L85.4082 26.2125C85.2499 26.1625 85.1374 26.1 85.0707 26.025C85.0124 25.9417 84.9832 25.8375 84.9832 25.7125C84.9832 25.5542 85.0374 25.4333 85.1457 25.35C85.2624 25.2583 85.4207 25.2125 85.6207 25.2125H91.2207C91.6374 25.2125 91.8457 25.3792 91.8457 25.7125C91.8457 25.8375 91.8082 25.9417 91.7332 26.025C91.6582 26.1 91.5332 26.1583 91.3582 26.2L90.8832 26.3C90.4999 26.3833 90.2665 26.5208 90.1832 26.7125C90.1082 26.9042 90.1665 27.2417 90.3582 27.725L93.2832 35.3125L92.5082 35.8L95.5457 27.75C95.729 27.2583 95.779 26.9125 95.6957 26.7125C95.6207 26.5125 95.3957 26.375 95.0207 26.3L94.5457 26.2C94.3707 26.1583 94.2457 26.1 94.1707 26.025C94.0957 25.9417 94.0582 25.8375 94.0582 25.7125C94.0582 25.5542 94.1124 25.4333 94.2207 25.35C94.3374 25.2583 94.4915 25.2125 94.6832 25.2125H98.0707C98.2624 25.2125 98.4124 25.2583 98.5207 25.35C98.6374 25.4333 98.6957 25.5542 98.6957 25.7125C98.6957 25.8292 98.6624 25.9292 98.5957 26.0125C98.5374 26.0875 98.4165 26.15 98.2332 26.2L97.8457 26.2875C97.6874 26.3292 97.5415 26.45 97.4082 26.65C97.2832 26.8417 97.1249 27.1792 96.9332 27.6625L93.4957 36.4C93.3874 36.675 93.2415 36.8583 93.0582 36.95C92.8749 37.0417 92.6707 37.0875 92.4457 37.0875ZM106.933 35.4375V35.1875L106.696 35.1375V27.65C106.696 27.0583 106.55 26.6042 106.258 26.2875C105.966 25.9625 105.55 25.8 105.008 25.8C104.516 25.8 104.137 25.9083 103.871 26.125C103.604 26.3417 103.471 26.6 103.471 26.9V28C103.471 28.5 103.304 28.8875 102.971 29.1625C102.637 29.4292 102.175 29.5625 101.583 29.5625C101.075 29.5625 100.687 29.4417 100.421 29.2C100.162 28.9583 100.033 28.625 100.033 28.2C100.033 27.675 100.246 27.1625 100.671 26.6625C101.104 26.1625 101.733 25.75 102.558 25.425C103.391 25.1 104.421 24.9375 105.646 24.9375C107.162 24.9375 108.291 25.2458 109.033 25.8625C109.775 26.4792 110.146 27.3167 110.146 28.375V34.875C110.146 35.1083 110.196 35.2875 110.296 35.4125C110.396 35.5292 110.529 35.5875 110.696 35.5875C110.879 35.5875 111.016 35.5458 111.108 35.4625C111.2 35.3708 111.279 35.275 111.346 35.175C111.387 35.125 111.433 35.0833 111.483 35.05C111.533 35.0083 111.591 34.9875 111.658 34.9875C111.758 34.9875 111.829 35.025 111.871 35.1C111.921 35.1667 111.946 35.2583 111.946 35.375C111.946 35.65 111.846 35.9375 111.646 36.2375C111.454 36.5292 111.166 36.7792 110.783 36.9875C110.4 37.1958 109.921 37.3 109.346 37.3C108.604 37.3 108.016 37.1333 107.583 36.8C107.15 36.4667 106.933 36.0125 106.933 35.4375ZM99.4955 34.3875C99.4955 33.3625 99.9538 32.5333 100.871 31.9C101.796 31.2583 103.091 30.9375 104.758 30.9375C105.3 30.9375 105.783 30.9875 106.208 31.0875C106.641 31.1792 107.016 31.3 107.333 31.45L107.071 32.2125C106.779 32.0792 106.487 31.975 106.196 31.9C105.904 31.825 105.583 31.7875 105.233 31.7875C104.55 31.7875 104.012 31.9667 103.621 32.325C103.237 32.6833 103.046 33.1792 103.046 33.8125C103.046 34.4458 103.212 34.9292 103.546 35.2625C103.879 35.5958 104.304 35.7625 104.821 35.7625C105.271 35.7625 105.7 35.6625 106.108 35.4625C106.516 35.2542 106.858 34.9708 107.133 34.6125L107.396 35.2875C106.946 35.9292 106.337 36.425 105.571 36.775C104.812 37.125 104.004 37.3 103.146 37.3C102.062 37.3 101.183 37.0333 100.508 36.5C99.833 35.9667 99.4955 35.2625 99.4955 34.3875ZM122.238 34.95L122.138 34.8875V21.225C122.138 21.025 122.104 20.8833 122.038 20.8C121.979 20.7083 121.879 20.65 121.738 20.625L121.075 20.575C120.925 20.5417 120.817 20.4917 120.75 20.425C120.692 20.35 120.663 20.2583 120.663 20.15C120.663 20.0167 120.7 19.9125 120.775 19.8375C120.859 19.7542 121.004 19.6708 121.213 19.5875L123.613 18.7375C123.913 18.6208 124.154 18.5375 124.338 18.4875C124.521 18.4375 124.696 18.4125 124.863 18.4125C125.113 18.4125 125.3 18.4833 125.425 18.625C125.55 18.7667 125.613 18.95 125.613 19.175V35.075C125.613 35.325 125.646 35.5083 125.713 35.625C125.788 35.7417 125.9 35.825 126.05 35.875L126.538 36C126.688 36.05 126.8 36.1167 126.875 36.2C126.95 36.2833 126.988 36.3875 126.988 36.5125C126.988 36.6625 126.934 36.7833 126.825 36.875C126.717 36.9583 126.55 37 126.325 37H123.688C123.271 37 122.925 36.8708 122.65 36.6125C122.375 36.3458 122.238 35.9958 122.238 35.5625V34.95ZM113.188 31.4375C113.188 30.1125 113.45 28.9625 113.975 27.9875C114.509 27.0125 115.225 26.2583 116.125 25.725C117.025 25.1917 118.029 24.925 119.138 24.925C120.129 24.925 121 25.1542 121.75 25.6125C122.5 26.0625 123.117 26.725 123.6 27.6L122.788 28.275C122.388 27.6083 121.934 27.1083 121.425 26.775C120.917 26.4417 120.371 26.275 119.788 26.275C119.221 26.275 118.713 26.4458 118.263 26.7875C117.813 27.1208 117.459 27.6417 117.2 28.35C116.942 29.05 116.813 29.9542 116.813 31.0625C116.813 32.0875 116.938 32.9375 117.188 33.6125C117.438 34.2792 117.779 34.7792 118.213 35.1125C118.646 35.4375 119.142 35.6 119.7 35.6C120.292 35.6 120.846 35.4208 121.363 35.0625C121.888 34.7042 122.371 34.1583 122.813 33.425L123.35 34.1C122.692 35.1167 121.942 35.9042 121.1 36.4625C120.259 37.0208 119.325 37.3 118.3 37.3C117.317 37.3 116.438 37.0542 115.663 36.5625C114.896 36.0625 114.292 35.3708 113.85 34.4875C113.409 33.6042 113.188 32.5875 113.188 31.4375ZM136.181 35.4375V35.1875L135.944 35.1375V27.65C135.944 27.0583 135.798 26.6042 135.506 26.2875C135.214 25.9625 134.798 25.8 134.256 25.8C133.764 25.8 133.385 25.9083 133.119 26.125C132.852 26.3417 132.719 26.6 132.719 26.9V28C132.719 28.5 132.552 28.8875 132.219 29.1625C131.885 29.4292 131.423 29.5625 130.831 29.5625C130.323 29.5625 129.935 29.4417 129.669 29.2C129.41 28.9583 129.281 28.625 129.281 28.2C129.281 27.675 129.494 27.1625 129.919 26.6625C130.352 26.1625 130.981 25.75 131.806 25.425C132.639 25.1 133.669 24.9375 134.894 24.9375C136.41 24.9375 137.539 25.2458 138.281 25.8625C139.023 26.4792 139.394 27.3167 139.394 28.375V34.875C139.394 35.1083 139.444 35.2875 139.544 35.4125C139.644 35.5292 139.777 35.5875 139.944 35.5875C140.127 35.5875 140.264 35.5458 140.356 35.4625C140.448 35.3708 140.527 35.275 140.594 35.175C140.635 35.125 140.681 35.0833 140.731 35.05C140.781 35.0083 140.839 34.9875 140.906 34.9875C141.006 34.9875 141.077 35.025 141.119 35.1C141.169 35.1667 141.194 35.2583 141.194 35.375C141.194 35.65 141.094 35.9375 140.894 36.2375C140.702 36.5292 140.414 36.7792 140.031 36.9875C139.648 37.1958 139.169 37.3 138.594 37.3C137.852 37.3 137.264 37.1333 136.831 36.8C136.398 36.4667 136.181 36.0125 136.181 35.4375ZM128.744 34.3875C128.744 33.3625 129.202 32.5333 130.119 31.9C131.044 31.2583 132.339 30.9375 134.006 30.9375C134.548 30.9375 135.031 30.9875 135.456 31.0875C135.889 31.1792 136.264 31.3 136.581 31.45L136.319 32.2125C136.027 32.0792 135.735 31.975 135.444 31.9C135.152 31.825 134.831 31.7875 134.481 31.7875C133.798 31.7875 133.26 31.9667 132.869 32.325C132.485 32.6833 132.294 33.1792 132.294 33.8125C132.294 34.4458 132.46 34.9292 132.794 35.2625C133.127 35.5958 133.552 35.7625 134.069 35.7625C134.519 35.7625 134.948 35.6625 135.356 35.4625C135.764 35.2542 136.106 34.9708 136.381 34.6125L136.644 35.2875C136.194 35.9292 135.585 36.425 134.819 36.775C134.06 37.125 133.252 37.3 132.394 37.3C131.31 37.3 130.431 37.0333 129.756 36.5C129.081 35.9667 128.744 35.2625 128.744 34.3875ZM163.957 32.7875C163.957 34.0292 163.42 35.0417 162.345 35.825C161.278 36.6083 159.678 37 157.545 37H148.907C148.666 37 148.487 36.95 148.37 36.85C148.253 36.75 148.195 36.6167 148.195 36.45C148.195 36.1583 148.362 35.9583 148.695 35.85L149.432 35.6875C149.632 35.6292 149.782 35.5458 149.882 35.4375C149.991 35.3208 150.045 35.1708 150.045 34.9875V21.5C150.045 21.325 149.991 21.1833 149.882 21.075C149.782 20.9583 149.632 20.8708 149.432 20.8125L148.695 20.65C148.362 20.5417 148.195 20.3417 148.195 20.05C148.195 19.875 148.253 19.7417 148.37 19.65C148.487 19.55 148.666 19.5 148.907 19.5H155.62C157.17 19.5 158.491 19.7125 159.582 20.1375C160.682 20.5625 161.52 21.1542 162.095 21.9125C162.67 22.6625 162.957 23.5417 162.957 24.55C162.957 25.3833 162.72 26.1292 162.245 26.7875C161.778 27.4458 161.087 27.9667 160.17 28.35C159.253 28.725 158.12 28.9125 156.77 28.9125L157.457 28.5375C158.774 28.5375 159.916 28.7208 160.882 29.0875C161.857 29.4458 162.612 29.9458 163.145 30.5875C163.687 31.2208 163.957 31.9542 163.957 32.7875ZM156.132 29.35H152.857V28.3875H155.845C156.587 28.3875 157.216 28.25 157.732 27.975C158.249 27.6917 158.637 27.2792 158.895 26.7375C159.162 26.1875 159.295 25.525 159.295 24.75C159.295 23.9083 159.128 23.1792 158.795 22.5625C158.462 21.9375 157.978 21.4542 157.345 21.1125C156.712 20.7708 155.941 20.6 155.032 20.6H153.895V34.725C153.895 35.125 154.016 35.4208 154.257 35.6125C154.499 35.8042 154.862 35.9 155.345 35.9H156.707C157.449 35.9 158.07 35.7708 158.57 35.5125C159.078 35.2458 159.462 34.8708 159.72 34.3875C159.978 33.8958 160.107 33.3292 160.107 32.6875C160.107 31.6708 159.77 30.8625 159.095 30.2625C158.42 29.6542 157.432 29.35 156.132 29.35ZM176.884 29.6625C176.884 30.0875 176.764 30.4125 176.522 30.6375C176.28 30.8625 175.93 30.975 175.472 30.975H167.684V30.0625H172.772C173.18 30.0625 173.384 29.8792 173.384 29.5125C173.384 28.3875 173.184 27.5375 172.784 26.9625C172.384 26.3875 171.851 26.1 171.184 26.1C170.668 26.1 170.209 26.2583 169.809 26.575C169.418 26.8833 169.109 27.3375 168.884 27.9375C168.668 28.5292 168.559 29.2458 168.559 30.0875C168.559 31.7042 168.934 32.9167 169.684 33.725C170.443 34.5333 171.443 34.9375 172.684 34.9375C173.434 34.9375 174.089 34.7875 174.647 34.4875C175.205 34.1792 175.63 33.7458 175.922 33.1875C176.055 33.0375 176.164 32.9333 176.247 32.875C176.339 32.8167 176.426 32.7875 176.509 32.7875C176.634 32.7875 176.726 32.8458 176.784 32.9625C176.843 33.0708 176.868 33.2083 176.859 33.375C176.826 34.0833 176.576 34.7375 176.109 35.3375C175.651 35.9375 175.026 36.4167 174.234 36.775C173.451 37.125 172.551 37.3 171.534 37.3C170.343 37.3 169.284 37.0542 168.359 36.5625C167.434 36.0708 166.709 35.3833 166.184 34.5C165.659 33.6083 165.397 32.5625 165.397 31.3625C165.397 30.1042 165.647 28.9917 166.147 28.025C166.647 27.0583 167.364 26.3 168.297 25.75C169.239 25.2 170.355 24.925 171.647 24.925C172.747 24.925 173.689 25.1292 174.472 25.5375C175.255 25.9375 175.851 26.4958 176.259 27.2125C176.676 27.9208 176.884 28.7375 176.884 29.6625ZM187.643 34.95L187.543 34.8875V21.225C187.543 21.025 187.51 20.8833 187.443 20.8C187.385 20.7083 187.285 20.65 187.143 20.625L186.48 20.575C186.33 20.5417 186.222 20.4917 186.155 20.425C186.097 20.35 186.068 20.2583 186.068 20.15C186.068 20.0167 186.105 19.9125 186.18 19.8375C186.264 19.7542 186.41 19.6708 186.618 19.5875L189.018 18.7375C189.318 18.6208 189.56 18.5375 189.743 18.4875C189.926 18.4375 190.101 18.4125 190.268 18.4125C190.518 18.4125 190.705 18.4833 190.83 18.625C190.955 18.7667 191.018 18.95 191.018 19.175V35.075C191.018 35.325 191.051 35.5083 191.118 35.625C191.193 35.7417 191.305 35.825 191.455 35.875L191.943 36C192.093 36.05 192.205 36.1167 192.28 36.2C192.355 36.2833 192.393 36.3875 192.393 36.5125C192.393 36.6625 192.339 36.7833 192.23 36.875C192.122 36.9583 191.955 37 191.73 37H189.093C188.676 37 188.33 36.8708 188.055 36.6125C187.78 36.3458 187.643 35.9958 187.643 35.5625V34.95ZM178.593 31.4375C178.593 30.1125 178.855 28.9625 179.38 27.9875C179.914 27.0125 180.63 26.2583 181.53 25.725C182.43 25.1917 183.435 24.925 184.543 24.925C185.535 24.925 186.405 25.1542 187.155 25.6125C187.905 26.0625 188.522 26.725 189.005 27.6L188.193 28.275C187.793 27.6083 187.339 27.1083 186.83 26.775C186.322 26.4417 185.776 26.275 185.193 26.275C184.626 26.275 184.118 26.4458 183.668 26.7875C183.218 27.1208 182.864 27.6417 182.605 28.35C182.347 29.05 182.218 29.9542 182.218 31.0625C182.218 32.0875 182.343 32.9375 182.593 33.6125C182.843 34.2792 183.185 34.7792 183.618 35.1125C184.051 35.4375 184.547 35.6 185.105 35.6C185.697 35.6 186.251 35.4208 186.768 35.0625C187.293 34.7042 187.776 34.1583 188.218 33.425L188.755 34.1C188.097 35.1167 187.347 35.9042 186.505 36.4625C185.664 37.0208 184.73 37.3 183.705 37.3C182.722 37.3 181.843 37.0542 181.068 36.5625C180.301 36.0625 179.697 35.3708 179.255 34.4875C178.814 33.6042 178.593 32.5875 178.593 31.4375ZM204.133 37.375C203.016 37.375 202.083 37.175 201.333 36.775C200.583 36.375 200.008 35.85 199.608 35.2C199.225 34.5333 199.033 33.8083 199.033 33.025C199.033 32.3083 199.191 31.65 199.508 31.05C199.825 30.4333 200.325 29.8667 201.008 29.35C201.708 28.8333 202.625 28.375 203.758 27.975V27.875L204.108 28.5C203.708 28.8167 203.383 29.1583 203.133 29.525C202.883 29.8917 202.7 30.275 202.583 30.675C202.466 31.075 202.408 31.5 202.408 31.95C202.408 32.6333 202.558 33.2333 202.858 33.75C203.158 34.25 203.566 34.6417 204.083 34.925C204.6 35.1917 205.175 35.325 205.808 35.325C206.458 35.325 207.033 35.225 207.533 35.025C208.033 34.8083 208.458 34.5 208.808 34.1L209.608 34.725H209.508C209.225 35.1583 208.858 35.575 208.408 35.975C207.958 36.375 207.383 36.7083 206.683 36.975C205.983 37.2417 205.133 37.375 204.133 37.375ZM210.758 33.75L209.758 33.125H209.958C210.408 32.4417 210.775 31.7917 211.058 31.175C211.358 30.5583 211.608 29.9167 211.808 29.25C212.008 28.5667 212.183 27.7833 212.333 26.9H214.158C213.875 27.8833 213.575 28.7583 213.258 29.525C212.958 30.275 212.608 30.9833 212.208 31.65C211.808 32.3167 211.325 33.0167 210.758 33.75ZM212.683 27.8L210.233 27.4V26.35H215.708V27.4L213.233 27.8H212.683ZM213.033 37.375C212.55 37.375 212.1 37.3333 211.683 37.25C211.283 37.1667 210.9 37.0333 210.533 36.85C210.166 36.6667 209.791 36.4083 209.408 36.075C208.708 35.425 208.058 34.75 207.458 34.05C206.875 33.35 206.333 32.6917 205.833 32.075C205.283 31.3583 204.808 30.7667 204.408 30.3C204.008 29.8167 203.675 29.4083 203.408 29.075C203.141 28.725 202.9 28.425 202.683 28.175C202.316 27.6917 202.016 27.225 201.783 26.775C201.566 26.325 201.408 25.8917 201.308 25.475C201.225 25.0583 201.183 24.6417 201.183 24.225C201.183 23.4083 201.375 22.7 201.758 22.1C202.158 21.5 202.708 21.0417 203.408 20.725C204.108 20.3917 204.925 20.225 205.858 20.225C207.241 20.225 208.3 20.525 209.033 21.125C209.783 21.725 210.158 22.5083 210.158 23.475C210.158 24.3583 209.833 25.125 209.183 25.775C208.533 26.4083 207.508 27.0167 206.108 27.6V27.65L205.533 27.075C206.216 26.3583 206.708 25.6667 207.008 25C207.325 24.3333 207.483 23.7167 207.483 23.15C207.483 22.55 207.333 22.0833 207.033 21.75C206.75 21.4 206.35 21.225 205.833 21.225C205.333 21.225 204.925 21.4083 204.608 21.775C204.308 22.1417 204.158 22.6083 204.158 23.175C204.158 23.425 204.183 23.6833 204.233 23.95C204.283 24.2 204.366 24.4667 204.483 24.75C204.616 25.0333 204.8 25.3417 205.033 25.675C205.2 25.925 205.4 26.1917 205.633 26.475C205.866 26.7583 206.191 27.1333 206.608 27.6C207.025 28.0667 207.6 28.7 208.333 29.5C208.9 30.1333 209.408 30.7 209.858 31.2C210.325 31.6833 210.758 32.15 211.158 32.6C211.575 33.05 212 33.5083 212.433 33.975C212.883 34.4417 213.375 34.9667 213.908 35.55L212.008 34.65L215.683 35.425L215.483 37.025C214.916 37.1583 214.458 37.25 214.108 37.3C213.758 37.35 213.4 37.375 213.033 37.375ZM238.713 32.7875C238.713 34.0292 238.176 35.0417 237.101 35.825C236.034 36.6083 234.434 37 232.301 37H223.663C223.422 37 223.242 36.95 223.126 36.85C223.009 36.75 222.951 36.6167 222.951 36.45C222.951 36.1583 223.117 35.9583 223.451 35.85L224.188 35.6875C224.388 35.6292 224.538 35.5458 224.638 35.4375C224.747 35.3208 224.801 35.1708 224.801 34.9875V21.5C224.801 21.325 224.747 21.1833 224.638 21.075C224.538 20.9583 224.388 20.8708 224.188 20.8125L223.451 20.65C223.117 20.5417 222.951 20.3417 222.951 20.05C222.951 19.875 223.009 19.7417 223.126 19.65C223.242 19.55 223.422 19.5 223.663 19.5H230.376C231.926 19.5 233.247 19.7125 234.338 20.1375C235.438 20.5625 236.276 21.1542 236.851 21.9125C237.426 22.6625 237.713 23.5417 237.713 24.55C237.713 25.3833 237.476 26.1292 237.001 26.7875C236.534 27.4458 235.842 27.9667 234.926 28.35C234.009 28.725 232.876 28.9125 231.526 28.9125L232.213 28.5375C233.53 28.5375 234.672 28.7208 235.638 29.0875C236.613 29.4458 237.367 29.9458 237.901 30.5875C238.442 31.2208 238.713 31.9542 238.713 32.7875ZM230.888 29.35H227.613V28.3875H230.601C231.342 28.3875 231.972 28.25 232.488 27.975C233.005 27.6917 233.392 27.2792 233.651 26.7375C233.917 26.1875 234.051 25.525 234.051 24.75C234.051 23.9083 233.884 23.1792 233.551 22.5625C233.217 21.9375 232.734 21.4542 232.101 21.1125C231.467 20.7708 230.697 20.6 229.788 20.6H228.651V34.725C228.651 35.125 228.772 35.4208 229.013 35.6125C229.255 35.8042 229.617 35.9 230.101 35.9H231.463C232.205 35.9 232.826 35.7708 233.326 35.5125C233.834 35.2458 234.217 34.8708 234.476 34.3875C234.734 33.8958 234.863 33.3292 234.863 32.6875C234.863 31.6708 234.526 30.8625 233.851 30.2625C233.176 29.6542 232.188 29.35 230.888 29.35ZM244.69 30.4C244.69 29.2 244.861 28.1917 245.203 27.375C245.544 26.5583 245.99 25.9458 246.54 25.5375C247.099 25.1292 247.694 24.925 248.328 24.925C249.111 24.925 249.715 25.15 250.14 25.6C250.565 26.05 250.778 26.6917 250.778 27.525C250.778 28.2583 250.624 28.8083 250.315 29.175C250.015 29.5417 249.619 29.725 249.128 29.725C248.636 29.725 248.261 29.5917 248.003 29.325C247.744 29.0583 247.615 28.6917 247.615 28.225V27.7625C247.607 27.5042 247.544 27.3125 247.428 27.1875C247.319 27.0542 247.132 26.9875 246.865 26.9875C246.574 26.9875 246.294 27.1083 246.028 27.35C245.761 27.5917 245.54 27.9583 245.365 28.45C245.199 28.9417 245.115 29.575 245.115 30.35L244.69 30.4ZM244.928 25.75L245.115 28.6625V35.0625C245.115 35.2958 245.161 35.4667 245.253 35.575C245.344 35.6833 245.511 35.7583 245.753 35.8L246.828 35.975C247.019 36 247.157 36.0583 247.24 36.15C247.332 36.2333 247.378 36.35 247.378 36.5C247.378 36.6583 247.319 36.7833 247.203 36.875C247.094 36.9583 246.932 37 246.715 37H240.903C240.678 37 240.511 36.9583 240.403 36.875C240.303 36.7833 240.253 36.6625 240.253 36.5125C240.253 36.3875 240.286 36.2833 240.353 36.2C240.428 36.1167 240.54 36.05 240.69 36L241.203 35.875C241.344 35.825 241.449 35.7417 241.515 35.625C241.59 35.5083 241.628 35.3292 241.628 35.0875V27.8125C241.628 27.6125 241.594 27.4708 241.528 27.3875C241.469 27.2958 241.374 27.2375 241.24 27.2125L240.565 27.1625C240.424 27.1292 240.319 27.0792 240.253 27.0125C240.194 26.9375 240.165 26.8458 240.165 26.7375C240.165 26.6042 240.203 26.4958 240.278 26.4125C240.361 26.3292 240.507 26.25 240.715 26.175L243.065 25.35C243.457 25.2 243.74 25.1042 243.915 25.0625C244.099 25.0125 244.244 24.9875 244.353 24.9875C244.528 24.9875 244.657 25.0458 244.74 25.1625C244.832 25.2792 244.894 25.475 244.928 25.75ZM263.481 29.6625C263.481 30.0875 263.36 30.4125 263.119 30.6375C262.877 30.8625 262.527 30.975 262.069 30.975H254.281V30.0625H259.369C259.777 30.0625 259.981 29.8792 259.981 29.5125C259.981 28.3875 259.781 27.5375 259.381 26.9625C258.981 26.3875 258.448 26.1 257.781 26.1C257.264 26.1 256.806 26.2583 256.406 26.575C256.014 26.8833 255.706 27.3375 255.481 27.9375C255.264 28.5292 255.156 29.2458 255.156 30.0875C255.156 31.7042 255.531 32.9167 256.281 33.725C257.039 34.5333 258.039 34.9375 259.281 34.9375C260.031 34.9375 260.685 34.7875 261.244 34.4875C261.802 34.1792 262.227 33.7458 262.519 33.1875C262.652 33.0375 262.76 32.9333 262.844 32.875C262.935 32.8167 263.023 32.7875 263.106 32.7875C263.231 32.7875 263.323 32.8458 263.381 32.9625C263.439 33.0708 263.464 33.2083 263.456 33.375C263.423 34.0833 263.173 34.7375 262.706 35.3375C262.248 35.9375 261.623 36.4167 260.831 36.775C260.048 37.125 259.148 37.3 258.131 37.3C256.939 37.3 255.881 37.0542 254.956 36.5625C254.031 36.0708 253.306 35.3833 252.781 34.5C252.256 33.6083 251.994 32.5625 251.994 31.3625C251.994 30.1042 252.244 28.9917 252.744 28.025C253.244 27.0583 253.96 26.3 254.894 25.75C255.835 25.2 256.952 24.925 258.244 24.925C259.344 24.925 260.285 25.1292 261.069 25.5375C261.852 25.9375 262.448 26.4958 262.856 27.2125C263.273 27.9208 263.481 28.7375 263.481 29.6625ZM272.802 35.4375V35.1875L272.565 35.1375V27.65C272.565 27.0583 272.419 26.6042 272.127 26.2875C271.835 25.9625 271.419 25.8 270.877 25.8C270.385 25.8 270.006 25.9083 269.74 26.125C269.473 26.3417 269.34 26.6 269.34 26.9V28C269.34 28.5 269.173 28.8875 268.84 29.1625C268.506 29.4292 268.044 29.5625 267.452 29.5625C266.944 29.5625 266.556 29.4417 266.29 29.2C266.031 28.9583 265.902 28.625 265.902 28.2C265.902 27.675 266.115 27.1625 266.54 26.6625C266.973 26.1625 267.602 25.75 268.427 25.425C269.26 25.1 270.29 24.9375 271.515 24.9375C273.031 24.9375 274.16 25.2458 274.902 25.8625C275.644 26.4792 276.015 27.3167 276.015 28.375V34.875C276.015 35.1083 276.065 35.2875 276.165 35.4125C276.265 35.5292 276.398 35.5875 276.565 35.5875C276.748 35.5875 276.885 35.5458 276.977 35.4625C277.069 35.3708 277.148 35.275 277.215 35.175C277.256 35.125 277.302 35.0833 277.352 35.05C277.402 35.0083 277.46 34.9875 277.527 34.9875C277.627 34.9875 277.698 35.025 277.74 35.1C277.79 35.1667 277.815 35.2583 277.815 35.375C277.815 35.65 277.715 35.9375 277.515 36.2375C277.323 36.5292 277.035 36.7792 276.652 36.9875C276.269 37.1958 275.79 37.3 275.215 37.3C274.473 37.3 273.885 37.1333 273.452 36.8C273.019 36.4667 272.802 36.0125 272.802 35.4375ZM265.365 34.3875C265.365 33.3625 265.823 32.5333 266.74 31.9C267.665 31.2583 268.96 30.9375 270.627 30.9375C271.169 30.9375 271.652 30.9875 272.077 31.0875C272.51 31.1792 272.885 31.3 273.202 31.45L272.94 32.2125C272.648 32.0792 272.356 31.975 272.065 31.9C271.773 31.825 271.452 31.7875 271.102 31.7875C270.419 31.7875 269.881 31.9667 269.49 32.325C269.106 32.6833 268.915 33.1792 268.915 33.8125C268.915 34.4458 269.081 34.9292 269.415 35.2625C269.748 35.5958 270.173 35.7625 270.69 35.7625C271.14 35.7625 271.569 35.6625 271.977 35.4625C272.385 35.2542 272.727 34.9708 273.002 34.6125L273.265 35.2875C272.815 35.9292 272.206 36.425 271.44 36.775C270.681 37.125 269.873 37.3 269.015 37.3C267.931 37.3 267.052 37.0333 266.377 36.5C265.702 35.9667 265.365 35.2625 265.365 34.3875ZM279.744 37C279.528 37 279.374 36.9583 279.282 36.875C279.19 36.7833 279.144 36.6625 279.144 36.5125C279.144 36.3875 279.178 36.2833 279.244 36.2C279.319 36.1167 279.432 36.05 279.582 36L280.082 35.875C280.232 35.825 280.34 35.7417 280.407 35.625C280.482 35.5083 280.519 35.325 280.519 35.075V21.225C280.519 21.025 280.486 20.8833 280.419 20.8C280.361 20.7083 280.265 20.65 280.132 20.625L279.457 20.575C279.315 20.5417 279.211 20.4917 279.144 20.425C279.086 20.35 279.057 20.2583 279.057 20.15C279.057 20.0167 279.094 19.9125 279.169 19.8375C279.244 19.7542 279.39 19.6708 279.607 19.5875L282.007 18.7375C282.307 18.6208 282.549 18.5375 282.732 18.4875C282.915 18.4375 283.086 18.4125 283.244 18.4125C283.494 18.4125 283.682 18.4833 283.807 18.625C283.94 18.7667 284.007 18.95 284.007 19.175V35.075C284.007 35.325 284.04 35.5083 284.107 35.625C284.182 35.7417 284.294 35.825 284.444 35.875L284.907 36C285.165 36.1083 285.294 36.2667 285.294 36.475C285.294 36.825 285.074 37 284.632 37H279.744ZM282.982 31.65L288.094 27.425C288.386 27.1833 288.515 26.9583 288.482 26.75C288.457 26.5417 288.278 26.3875 287.944 26.2875L287.494 26.1875C287.344 26.1375 287.24 26.075 287.182 26C287.124 25.925 287.094 25.8292 287.094 25.7125C287.094 25.5542 287.149 25.4333 287.257 25.35C287.374 25.2583 287.532 25.2125 287.732 25.2125H292.107C292.299 25.2125 292.449 25.2583 292.557 25.35C292.674 25.4333 292.732 25.5458 292.732 25.6875C292.732 25.8375 292.686 25.9625 292.594 26.0625C292.503 26.1542 292.307 26.2375 292.007 26.3125C291.565 26.4042 291.174 26.5458 290.832 26.7375C290.49 26.9208 290.069 27.2167 289.569 27.625L283.357 32.65L282.982 31.65ZM287.294 28.625L291.719 35.0875C291.911 35.3542 292.078 35.5458 292.219 35.6625C292.369 35.7708 292.582 35.8667 292.857 35.95C293.024 36.0333 293.149 36.125 293.232 36.225C293.315 36.3167 293.357 36.4208 293.357 36.5375C293.357 36.6792 293.299 36.7917 293.182 36.875C293.074 36.9583 292.924 37 292.732 37H287.619C287.444 37 287.303 36.9583 287.194 36.875C287.094 36.7833 287.044 36.6625 287.044 36.5125C287.044 36.4125 287.069 36.3292 287.119 36.2625C287.178 36.1875 287.274 36.1208 287.407 36.0625L287.819 35.9625C288.044 35.8958 288.165 35.7958 288.182 35.6625C288.207 35.5292 288.107 35.3042 287.882 34.9875L284.957 30.7L287.294 28.625ZM299.766 35.0625C299.766 35.2958 299.812 35.4792 299.904 35.6125C299.995 35.7375 300.145 35.8125 300.354 35.8375L301.629 35.9875C301.82 36.0042 301.958 36.0625 302.041 36.1625C302.125 36.2542 302.166 36.3667 302.166 36.5C302.166 36.8333 301.954 37 301.529 37H295.204C295.012 37 294.862 36.9583 294.754 36.875C294.645 36.7833 294.591 36.6667 294.591 36.525C294.591 36.3833 294.633 36.2708 294.716 36.1875C294.8 36.0958 294.929 36.0292 295.104 35.9875L295.654 35.8625C295.879 35.7958 296.041 35.7042 296.141 35.5875C296.241 35.4708 296.291 35.3042 296.291 35.0875V27.5125C296.291 27.3542 296.25 27.2208 296.166 27.1125C296.091 27.0042 295.945 26.9125 295.729 26.8375L295.054 26.625C294.787 26.525 294.608 26.4292 294.516 26.3375C294.425 26.2375 294.379 26.1292 294.379 26.0125C294.379 25.8792 294.425 25.7708 294.516 25.6875C294.616 25.6042 294.77 25.5625 294.979 25.5625H297.029L296.304 25.975V25.5875C296.304 25.3458 296.237 25.1167 296.104 24.9C295.979 24.675 295.825 24.4375 295.641 24.1875C295.466 23.9375 295.312 23.6542 295.179 23.3375C295.054 23.0125 294.991 22.6333 294.991 22.2C294.991 21.1833 295.358 20.3625 296.091 19.7375C296.833 19.1125 297.854 18.8 299.154 18.8C299.995 18.8 300.704 18.9333 301.279 19.2C301.854 19.4667 302.287 19.8208 302.579 20.2625C302.879 20.7042 303.029 21.1833 303.029 21.7C303.029 22.225 302.891 22.625 302.616 22.9C302.341 23.175 301.979 23.3125 301.529 23.3125C301.045 23.3125 300.658 23.1625 300.366 22.8625C300.083 22.5625 299.941 22.1625 299.941 21.6625V20.8875C299.941 20.4958 299.833 20.2 299.616 20C299.4 19.8 299.104 19.7 298.729 19.7C298.279 19.7 297.933 19.8417 297.691 20.125C297.45 20.4083 297.329 20.8083 297.329 21.325C297.329 21.7083 297.4 22.0583 297.541 22.375C297.691 22.6917 297.875 22.9833 298.091 23.25C298.316 23.5083 298.537 23.7625 298.754 24.0125C298.979 24.2542 299.162 24.5 299.304 24.75C299.454 25 299.529 25.2667 299.529 25.55V26.1L299.129 25.5625H302.016C302.208 25.5625 302.354 25.6 302.454 25.675C302.562 25.75 302.616 25.8625 302.616 26.0125C302.616 26.2208 302.512 26.3958 302.304 26.5375C302.095 26.6708 301.762 26.7375 301.304 26.7375H299.766V35.0625ZM311.596 35.4375V35.1875L311.359 35.1375V27.65C311.359 27.0583 311.213 26.6042 310.921 26.2875C310.629 25.9625 310.213 25.8 309.671 25.8C309.179 25.8 308.8 25.9083 308.534 26.125C308.267 26.3417 308.134 26.6 308.134 26.9V28C308.134 28.5 307.967 28.8875 307.634 29.1625C307.3 29.4292 306.838 29.5625 306.246 29.5625C305.738 29.5625 305.35 29.4417 305.084 29.2C304.825 28.9583 304.696 28.625 304.696 28.2C304.696 27.675 304.909 27.1625 305.334 26.6625C305.767 26.1625 306.396 25.75 307.221 25.425C308.054 25.1 309.084 24.9375 310.309 24.9375C311.825 24.9375 312.954 25.2458 313.696 25.8625C314.438 26.4792 314.809 27.3167 314.809 28.375V34.875C314.809 35.1083 314.859 35.2875 314.959 35.4125C315.059 35.5292 315.192 35.5875 315.359 35.5875C315.542 35.5875 315.679 35.5458 315.771 35.4625C315.863 35.3708 315.942 35.275 316.009 35.175C316.05 35.125 316.096 35.0833 316.146 35.05C316.196 35.0083 316.254 34.9875 316.321 34.9875C316.421 34.9875 316.492 35.025 316.534 35.1C316.584 35.1667 316.609 35.2583 316.609 35.375C316.609 35.65 316.509 35.9375 316.309 36.2375C316.117 36.5292 315.829 36.7792 315.446 36.9875C315.063 37.1958 314.584 37.3 314.009 37.3C313.267 37.3 312.679 37.1333 312.246 36.8C311.813 36.4667 311.596 36.0125 311.596 35.4375ZM304.159 34.3875C304.159 33.3625 304.617 32.5333 305.534 31.9C306.459 31.2583 307.754 30.9375 309.421 30.9375C309.963 30.9375 310.446 30.9875 310.871 31.0875C311.304 31.1792 311.679 31.3 311.996 31.45L311.734 32.2125C311.442 32.0792 311.15 31.975 310.859 31.9C310.567 31.825 310.246 31.7875 309.896 31.7875C309.213 31.7875 308.675 31.9667 308.284 32.325C307.9 32.6833 307.709 33.1792 307.709 33.8125C307.709 34.4458 307.875 34.9292 308.209 35.2625C308.542 35.5958 308.967 35.7625 309.484 35.7625C309.934 35.7625 310.363 35.6625 310.771 35.4625C311.179 35.2542 311.521 34.9708 311.796 34.6125L312.059 35.2875C311.609 35.9292 311 36.425 310.234 36.775C309.475 37.125 308.667 37.3 307.809 37.3C306.725 37.3 305.846 37.0333 305.171 36.5C304.496 35.9667 304.159 35.2625 304.159 34.3875ZM323.276 36.225C323.851 36.225 324.297 36.0833 324.613 35.8C324.93 35.5083 325.088 35.1417 325.088 34.7C325.088 34.425 325.026 34.175 324.901 33.95C324.776 33.7167 324.538 33.5083 324.188 33.325C323.847 33.1333 323.342 32.9583 322.676 32.8C321.417 32.5333 320.438 32.2042 319.738 31.8125C319.047 31.4125 318.563 30.95 318.288 30.425C318.022 29.9 317.888 29.3208 317.888 28.6875C317.888 27.5375 318.292 26.625 319.101 25.95C319.917 25.2667 321.092 24.925 322.626 24.925C323.184 24.925 323.638 24.975 323.988 25.075C324.338 25.1667 324.626 25.2583 324.851 25.35C325.076 25.4417 325.272 25.4875 325.438 25.4875C325.613 25.4875 325.751 25.4417 325.851 25.35C325.959 25.2583 326.063 25.1667 326.163 25.075C326.263 24.975 326.397 24.925 326.563 24.925C326.688 24.925 326.797 24.9667 326.888 25.05C326.988 25.125 327.067 25.2667 327.126 25.475L327.951 28.05C328.034 28.3333 328.059 28.5625 328.026 28.7375C327.992 28.9125 327.884 29.0333 327.701 29.1C327.526 29.175 327.372 29.1792 327.238 29.1125C327.105 29.0458 326.976 28.9167 326.851 28.725C326.476 28.0583 326.072 27.5292 325.638 27.1375C325.213 26.7375 324.763 26.45 324.288 26.275C323.822 26.0917 323.334 26 322.826 26C322.117 26 321.584 26.1458 321.226 26.4375C320.876 26.7292 320.701 27.1208 320.701 27.6125C320.701 27.9125 320.776 28.1833 320.926 28.425C321.076 28.6583 321.355 28.875 321.763 29.075C322.172 29.275 322.763 29.4625 323.538 29.6375C324.613 29.8792 325.463 30.1833 326.088 30.55C326.722 30.9167 327.176 31.3625 327.451 31.8875C327.726 32.4042 327.863 33.0083 327.863 33.7C327.863 34.4167 327.676 35.0458 327.301 35.5875C326.934 36.1292 326.422 36.5542 325.763 36.8625C325.113 37.1625 324.359 37.3125 323.501 37.3125C322.959 37.3125 322.522 37.2583 322.188 37.15C321.863 37.0417 321.592 36.9333 321.376 36.825C321.167 36.7167 320.967 36.6625 320.776 36.6625C320.601 36.6625 320.451 36.7167 320.326 36.825C320.201 36.9333 320.08 37.0375 319.963 37.1375C319.855 37.2458 319.726 37.3 319.576 37.3C319.451 37.3 319.347 37.2542 319.263 37.1625C319.18 37.0792 319.117 36.9375 319.076 36.7375L318.588 34.3C318.53 33.9833 318.517 33.7458 318.551 33.5875C318.592 33.4292 318.697 33.3167 318.863 33.25C319.03 33.1833 319.18 33.1917 319.313 33.275C319.447 33.3583 319.584 33.5125 319.726 33.7375C320.251 34.6292 320.817 35.2667 321.426 35.65C322.034 36.0333 322.651 36.225 323.276 36.225ZM330.611 26.3875L329.999 26.2125C329.807 26.1542 329.67 26.0833 329.586 26C329.511 25.9167 329.474 25.8167 329.474 25.7C329.474 25.5417 329.528 25.4208 329.636 25.3375C329.745 25.2542 329.89 25.2125 330.074 25.2125H330.849C331.04 25.2125 331.199 25.1792 331.324 25.1125C331.457 25.0375 331.59 24.9083 331.724 24.725L333.149 22.7875C333.315 22.5792 333.474 22.4292 333.624 22.3375C333.782 22.2375 333.936 22.1875 334.086 22.1875C334.253 22.1875 334.382 22.2417 334.474 22.35C334.574 22.45 334.624 22.6 334.624 22.8V33.475C334.624 34.0667 334.736 34.5167 334.961 34.825C335.195 35.1333 335.52 35.2875 335.936 35.2875C336.228 35.2875 336.457 35.2292 336.624 35.1125C336.799 34.9958 336.936 34.8625 337.036 34.7125C337.136 34.5542 337.232 34.4125 337.324 34.2875C337.424 34.1625 337.549 34.0917 337.699 34.075C337.815 34.0667 337.907 34.1042 337.974 34.1875C338.04 34.2625 338.074 34.3917 338.074 34.575C338.065 35.0583 337.907 35.5042 337.599 35.9125C337.299 36.3125 336.882 36.6375 336.349 36.8875C335.824 37.1375 335.22 37.2625 334.536 37.2625C333.478 37.2625 332.649 36.9958 332.049 36.4625C331.449 35.9292 331.149 35.125 331.149 34.05V27.1C331.149 26.8917 331.107 26.7375 331.024 26.6375C330.94 26.5375 330.803 26.4542 330.611 26.3875ZM333.261 26.3875V25.2125H337.374C337.565 25.2125 337.711 25.25 337.811 25.325C337.92 25.4 337.974 25.5125 337.974 25.6625C337.974 25.8708 337.87 26.0458 337.661 26.1875C337.453 26.3208 337.12 26.3875 336.661 26.3875H333.261Z" fill="#332D2A"/>
</svg>
