<svg width="331" height="66" viewBox="0 0 331 66" fill="none" xmlns="http://www.w3.org/2000/svg">
<path fill-rule="evenodd" clip-rule="evenodd" d="M55.0241 21.9206V12.3957C55.0241 11.4444 54.2391 10.6568 53.2878 10.6568H43.7617L55.0241 21.9206ZM43.7617 55.5088H53.2878C54.2391 55.5088 55.0241 54.7238 55.0241 53.7725V44.2502L43.7617 55.5088ZM21.4333 10.6568H11.9072C10.9597 10.6568 10.1709 11.4444 10.1709 12.3957V21.9206L21.4333 10.6568ZM8.84652 42.9221V53.7725C8.84652 55.4559 10.2276 56.837 11.9072 56.837H22.7577L30.4302 64.5082C31.6222 65.6965 33.5778 65.6965 34.7661 64.5082L42.4374 56.837H53.2878C54.9712 56.837 56.3523 55.4559 56.3523 53.7725V42.9221L64.0248 35.2495C65.213 34.0588 65.213 32.1057 64.0248 30.9187L56.3523 23.2461V12.3957C56.3523 10.7123 54.9712 9.33126 53.2878 9.33126H42.4374L34.7661 1.65873C33.5778 0.469225 31.6222 0.469225 30.4302 1.65873L22.7577 9.33126H11.9072C10.2276 9.33126 8.84652 10.7123 8.84652 12.3957V23.2461L1.17524 30.9187C-0.0180472 32.1057 -0.0180472 34.0588 1.17524 35.2495L8.84652 42.9221ZM21.4333 55.5088L10.1709 44.2502V53.7725C10.1709 54.7238 10.9597 55.5088 11.9072 55.5088H21.4333ZM33.8273 2.59494L63.086 31.8562C63.7577 32.5265 63.7577 33.6379 63.086 34.312L33.8273 63.5707C33.157 64.2411 32.0431 64.2411 31.3727 63.5707L2.11276 34.312C1.43862 33.6379 1.43862 32.5265 2.11276 31.8562L31.3727 2.59494C32.0431 1.92458 33.157 1.92458 33.8273 2.59494Z" fill="#91AC90"/>
<path d="M24.0645 28.2689C24.0645 27.8603 24.3956 27.5292 24.8041 27.5292H29.5296C29.9382 27.5292 30.2693 27.8603 30.2693 28.2689V30.6971H34.5891V28.2689C34.5891 27.8603 34.9201 27.5292 35.3286 27.5292H40.0543C40.4627 27.5292 40.7938 27.8603 40.7938 28.2689V30.6971H43.5428V24.1062C43.5428 23.4952 43.0476 23 42.4366 23H22.4216C21.8107 23 21.3154 23.4952 21.3154 24.1062V30.6971H24.0645V28.2689Z" fill="white"/>
<path d="M43.5425 31.3516L45.1718 35.1917C45.3738 35.6675 45.0245 36.195 44.5078 36.195H20.3499C19.833 36.195 19.4838 35.6675 19.6857 35.1917L21.3151 31.3516L18.3128 35.8129C18.1452 36.062 18.0557 36.3553 18.0557 36.6555V42.2427H20.2941V39.52H44.5634V42.2427H46.8019V36.6555C46.8019 36.3553 46.7124 36.062 46.5448 35.8129L43.5425 31.3516Z" fill="white"/>
<path d="M76 34.1693V32.9048L80.3908 32.3779H80.988V34.1693H76ZM78.775 34.1693C78.8218 33.0687 78.857 31.9095 78.8804 30.6918C78.9038 29.4741 78.9155 28.2329 78.9155 26.9684C78.9155 25.6804 78.9155 24.4276 78.9155 23.2098V21.7345C78.9155 20.5168 78.9155 19.2874 78.9155 18.0462C78.9155 16.7817 78.9038 15.5405 78.8804 14.3228C78.857 13.1051 78.8218 11.9459 78.775 10.8453H83.2009C83.1541 11.9225 83.119 13.07 83.0956 14.2877C83.0721 15.5054 83.0604 16.7466 83.0604 18.0111C83.0604 19.2757 83.0604 20.5168 83.0604 21.7345V22.9639C83.0604 24.2519 83.0604 25.5516 83.0604 26.863C83.0604 28.151 83.0721 29.4155 83.0956 30.6567C83.119 31.8744 83.1541 33.0453 83.2009 34.1693H78.775ZM80.8826 34.1693V32.694H84.7114C86.6316 32.694 88.0952 32.2725 89.1022 31.4294C90.1092 30.563 90.6124 29.3453 90.6124 27.7763C90.6124 26.0902 90.1204 24.8374 89.1373 24.0177C88.1538 23.1981 86.6199 22.7883 84.5357 22.7883H80.8826V21.3833H84.3952C85.5895 21.3833 86.5731 21.2076 87.3459 20.8564C88.1421 20.5051 88.7275 19.9782 89.1022 19.2757C89.4769 18.5731 89.6642 17.7067 89.6642 16.6763C89.6642 15.6459 89.4769 14.8146 89.1022 14.1823C88.7509 13.5266 88.224 13.0466 87.5215 12.7421C86.819 12.4377 85.9408 12.2855 84.887 12.2855H80.8826V10.8453H85.9057C87.7088 10.8453 89.1842 11.0912 90.3314 11.583C91.4794 12.0513 92.3334 12.6953 92.8954 13.5149C93.4574 14.3345 93.7384 15.2947 93.7384 16.3953C93.7384 17.332 93.4934 18.2102 93.0014 19.0298C92.5094 19.8494 91.7254 20.5285 90.6474 21.0671C89.594 21.6057 88.1889 21.957 86.4326 22.1209V21.8048C88.3762 21.8984 89.9686 22.2146 91.2094 22.7532C92.4744 23.2684 93.4114 23.9592 94.0204 24.8257C94.6284 25.6687 94.9334 26.6405 94.9334 27.7412C94.9334 28.5842 94.7454 29.3921 94.3714 30.1649C93.9964 30.9377 93.4224 31.6285 92.6504 32.2373C91.8774 32.8228 90.8704 33.2911 89.6291 33.6424C88.388 33.9937 86.9126 34.1693 85.2031 34.1693H80.8826ZM76 12.1098V10.8453H80.988V12.6367H80.3908L76 12.1098ZM105.794 34.6611C104.202 34.6611 102.797 34.3332 101.579 33.6775C100.361 32.9984 99.4014 32.0266 98.6994 30.762C98.0204 29.4975 97.6804 27.9636 97.6804 26.1605C97.6804 24.3105 98.0314 22.7181 98.7344 21.3833C99.4604 20.025 100.432 18.9946 101.649 18.2921C102.867 17.5662 104.202 17.2032 105.654 17.2032C106.965 17.2032 108.124 17.4842 109.131 18.0462C110.138 18.5848 110.923 19.3576 111.485 20.3646C112.047 21.3481 112.328 22.519 112.328 23.8772C112.328 24.2519 112.304 24.5915 112.258 24.8959C112.234 25.1769 112.187 25.4462 112.117 25.7038H99.3314V24.369H106.497C107.363 24.369 107.937 24.2051 108.218 23.8772C108.522 23.5494 108.675 23.0459 108.675 22.3668C108.675 21.5238 108.546 20.8212 108.288 20.2592C108.054 19.6972 107.703 19.2757 107.234 18.9946C106.79 18.7136 106.263 18.5731 105.654 18.5731C104.998 18.5731 104.366 18.7956 103.757 19.2405C103.172 19.6855 102.691 20.4114 102.317 21.4184C101.942 22.4253 101.755 23.7953 101.755 25.5282C101.755 26.9567 101.977 28.1627 102.422 29.1462C102.891 30.1298 103.523 30.8791 104.319 31.3943C105.139 31.8861 106.075 32.132 107.129 32.132C108.113 32.132 108.967 31.9563 109.693 31.6051C110.443 31.2304 111.11 30.7035 111.696 30.0244L112.468 30.6215C112 31.5114 111.45 32.2608 110.817 32.8696C110.185 33.4551 109.459 33.9 108.64 34.2044C107.82 34.5089 106.872 34.6611 105.794 34.6611ZM121.92 34.6611C120.608 34.6611 119.438 34.3332 118.407 33.6775C117.4 32.9984 116.604 32.0266 116.019 30.762C115.433 29.4975 115.14 27.9636 115.14 26.1605C115.14 24.3105 115.468 22.7181 116.124 21.3833C116.78 20.0484 117.658 19.0181 118.758 18.2921C119.859 17.5662 121.077 17.2032 122.412 17.2032C123.091 17.2032 123.723 17.3086 124.308 17.5193C124.894 17.7301 125.444 18.0696 125.959 18.538C126.475 18.9829 126.955 19.5801 127.4 20.3295H128.032L127.681 21.875C126.884 20.9617 126.17 20.3295 125.538 19.9782C124.929 19.6035 124.25 19.4162 123.501 19.4162C122.728 19.4162 122.025 19.6503 121.393 20.1187C120.761 20.5871 120.245 21.313 119.847 22.2965C119.473 23.2801 119.285 24.5329 119.285 26.0551C119.285 27.507 119.461 28.713 119.812 29.6731C120.187 30.6098 120.69 31.3006 121.323 31.7456C121.955 32.1905 122.681 32.413 123.501 32.413C124.344 32.413 125.081 32.1671 125.714 31.6753C126.369 31.1836 127.013 30.481 127.645 29.5677L127.962 31.1836H127.364C126.966 31.9095 126.486 32.5301 125.924 33.0453C125.386 33.5604 124.789 33.9585 124.133 34.2396C123.477 34.5206 122.739 34.6611 121.92 34.6611ZM126.943 34.5557L126.697 31.2538V31.1484V20.5051L126.802 20.1187V11.3722L124.203 10.9507V9.8618L130.245 8.3513L130.737 8.6674L130.596 14.4282V32.6589L132.844 33.0101V34.1693L126.943 34.5557ZM149.154 34.6611C147.679 34.6611 146.403 34.3801 145.325 33.818C144.248 33.256 143.417 32.5067 142.831 31.5699C142.269 30.6098 141.988 29.5794 141.988 28.4788C141.988 27.3782 142.211 26.3829 142.656 25.4931C143.124 24.5798 143.827 23.7601 144.763 23.0342C145.723 22.3083 146.918 21.6643 148.346 21.1022L148.452 21.032L148.908 21.7696C148.112 22.238 147.48 22.7766 147.011 23.3855C146.543 23.9943 146.204 24.6266 145.993 25.2823C145.805 25.938 145.712 26.582 145.712 27.2143C145.712 28.151 145.911 29.0057 146.309 29.7785C146.73 30.5279 147.316 31.1367 148.065 31.6051C148.815 32.05 149.704 32.2725 150.735 32.2725C151.812 32.2725 152.796 32.0734 153.685 31.6753C154.575 31.2772 155.301 30.7035 155.863 29.9541L156.812 30.5864V30.6215C156.367 31.2772 155.805 31.9212 155.126 32.5535C154.47 33.1623 153.65 33.6658 152.667 34.0639C151.707 34.462 150.536 34.6611 149.154 34.6611ZM157.655 29.9541L156.531 29.1813H156.777C157.409 28.2446 157.936 27.3079 158.357 26.3712C158.802 25.4345 159.189 24.4393 159.516 23.3855C159.844 22.3083 160.137 21.1022 160.395 19.7674H162.186C161.858 21.2193 161.484 22.5307 161.062 23.7016C160.641 24.8725 160.149 25.9614 159.587 26.9684C159.048 27.9753 158.404 28.9706 157.655 29.9541ZM160.676 20.9266L157.374 20.3997V19.2405H164.575V20.3997L161.413 20.9266H160.676ZM161.413 34.6611C160.781 34.6611 160.207 34.6025 159.692 34.4854C159.2 34.3918 158.744 34.2161 158.322 33.9585C157.901 33.701 157.467 33.3614 157.022 32.9399C155.969 31.8392 155.009 30.7855 154.142 29.7785C153.276 28.7715 152.444 27.788 151.648 26.8279C150.946 25.938 150.325 25.1652 149.786 24.5095C149.248 23.8538 148.768 23.2684 148.346 22.7532C147.925 22.238 147.503 21.7345 147.082 21.2427C146.52 20.5636 146.075 19.9079 145.747 19.2757C145.419 18.6434 145.185 18.0345 145.044 17.4491C144.904 16.8402 144.834 16.2431 144.834 15.6576C144.834 14.5804 145.091 13.6437 145.606 12.8475C146.122 12.0513 146.824 11.4307 147.714 10.9858C148.627 10.5409 149.669 10.3184 150.84 10.3184C152.643 10.3184 154.013 10.7399 154.95 11.583C155.91 12.426 156.39 13.5149 156.39 14.8497C156.39 16.1143 155.922 17.2266 154.985 18.1867C154.048 19.1234 152.585 20.0719 150.594 21.032H150.524L149.997 20.2943C151.074 19.4045 151.917 18.4912 152.526 17.5545C153.159 16.6178 153.475 15.6576 153.475 14.6741C153.475 13.6671 153.229 12.8826 152.737 12.3206C152.245 11.7586 151.59 11.4776 150.77 11.4776C149.997 11.4776 149.341 11.7703 148.803 12.3557C148.288 12.9412 148.03 13.7023 148.03 14.639C148.03 15.0371 148.065 15.4352 148.135 15.8333C148.206 16.2314 148.346 16.6529 148.557 17.0978C148.768 17.5193 149.06 17.9877 149.435 18.5029C149.763 18.9478 150.114 19.4045 150.489 19.8728C150.864 20.3177 151.32 20.8446 151.859 21.4535C152.398 22.0624 153.1 22.8469 153.966 23.807C154.692 24.6266 155.372 25.3994 156.004 26.1253C156.66 26.8513 157.304 27.5655 157.936 28.2681C158.591 28.9706 159.259 29.7082 159.938 30.481C160.641 31.2304 161.402 32.0617 162.221 32.975L159.833 31.9915L164.61 32.7642L164.469 34.2044C163.837 34.3684 163.287 34.4854 162.818 34.5557C162.35 34.626 161.882 34.6611 161.413 34.6611ZM174.724 34.1693V32.9048L179.115 32.3779H179.712V34.1693H174.724ZM177.499 34.1693C177.546 33.0687 177.581 31.9095 177.605 30.6918C177.628 29.4741 177.64 28.2329 177.64 26.9684C177.64 25.6804 177.64 24.4276 177.64 23.2098V21.7345C177.64 20.5168 177.64 19.2874 177.64 18.0462C177.64 16.7817 177.628 15.5405 177.605 14.3228C177.581 13.1051 177.546 11.9459 177.499 10.8453H181.925C181.878 11.9225 181.843 13.07 181.82 14.2877C181.796 15.5054 181.785 16.7466 181.785 18.0111C181.785 19.2757 181.785 20.5168 181.785 21.7345V22.9639C181.785 24.2519 181.785 25.5516 181.785 26.863C181.785 28.151 181.796 29.4155 181.82 30.6567C181.843 31.8744 181.878 33.0453 181.925 34.1693H177.499ZM179.607 34.1693V32.694H183.436C185.356 32.694 186.82 32.2725 187.827 31.4294C188.833 30.563 189.337 29.3453 189.337 27.7763C189.337 26.0902 188.845 24.8374 187.862 24.0177C186.878 23.1981 185.344 22.7883 183.26 22.7883H179.607V21.3833H183.12C184.314 21.3833 185.297 21.2076 186.07 20.8564C186.866 20.5051 187.452 19.9782 187.827 19.2757C188.201 18.5731 188.389 17.7067 188.389 16.6763C188.389 15.6459 188.201 14.8146 187.827 14.1823C187.475 13.5266 186.948 13.0466 186.246 12.7421C185.543 12.4377 184.665 12.2855 183.611 12.2855H179.607V10.8453H184.63C186.433 10.8453 187.908 11.0912 189.056 11.583C190.203 12.0513 191.058 12.6953 191.62 13.5149C192.182 14.3345 192.463 15.2947 192.463 16.3953C192.463 17.332 192.217 18.2102 191.726 19.0298C191.234 19.8494 190.449 20.5285 189.372 21.0671C188.318 21.6057 186.913 21.957 185.157 22.1209V21.8048C187.101 21.8984 188.693 22.2146 189.934 22.7532C191.199 23.2684 192.135 23.9592 192.744 24.8257C193.353 25.6687 193.658 26.6405 193.658 27.7412C193.658 28.5842 193.47 29.3921 193.096 30.1649C192.721 30.9377 192.147 31.6285 191.374 32.2373C190.602 32.8228 189.595 33.2911 188.353 33.6424C187.112 33.9937 185.637 34.1693 183.927 34.1693H179.607ZM174.724 12.1098V10.8453H179.712V12.6367H179.115L174.724 12.1098ZM195.989 34.1693V33.0101L199.431 32.413H201.399L204.981 33.0101V34.1693H195.989ZM198.167 34.1693C198.214 33.6307 198.237 32.9282 198.237 32.0617C198.261 31.1718 198.272 30.2586 198.272 29.3218C198.296 28.3617 198.307 27.5187 198.307 26.7927V25.1067C198.307 24.451 198.296 23.8772 198.272 23.3855C198.272 22.8937 198.261 22.437 198.237 22.0155C198.237 21.594 198.225 21.1374 198.202 20.6456L195.778 20.2241V19.2054L201.504 17.2032L201.996 17.5193L202.206 22.1209V22.2263V26.7927C202.206 27.5187 202.206 28.3617 202.206 29.3218C202.23 30.2586 202.253 31.1718 202.277 32.0617C202.3 32.9282 202.324 33.6307 202.347 34.1693H198.167ZM202.101 24.65L201.399 22.437H201.996C202.347 21.2896 202.792 20.3295 203.331 19.5567C203.869 18.7839 204.455 18.1984 205.087 17.8003C205.743 17.4022 206.41 17.2032 207.089 17.2032C207.721 17.2032 208.272 17.3554 208.74 17.6598C209.232 17.9643 209.56 18.4326 209.724 19.0649C209.7 19.8611 209.478 20.47 209.056 20.8915C208.658 21.313 208.143 21.5238 207.511 21.5238C207.066 21.5238 206.644 21.4184 206.246 21.2076C205.871 20.9969 205.508 20.6807 205.157 20.2592L204.279 19.2405H205.684C204.911 19.7089 204.197 20.4114 203.541 21.3481C202.909 22.2614 202.429 23.362 202.101 24.65ZM218.926 34.6611C217.334 34.6611 215.929 34.3332 214.711 33.6775C213.494 32.9984 212.533 32.0266 211.831 30.762C211.152 29.4975 210.812 27.9636 210.812 26.1605C210.812 24.3105 211.163 22.7181 211.866 21.3833C212.592 20.025 213.564 18.9946 214.781 18.2921C215.999 17.5662 217.334 17.2032 218.786 17.2032C220.097 17.2032 221.256 17.4842 222.263 18.0462C223.27 18.5848 224.055 19.3576 224.617 20.3646C225.179 21.3481 225.46 22.519 225.46 23.8772C225.46 24.2519 225.437 24.5915 225.39 24.8959C225.366 25.1769 225.319 25.4462 225.249 25.7038H212.463V24.369H219.629C220.495 24.369 221.069 24.2051 221.35 23.8772C221.655 23.5494 221.807 23.0459 221.807 22.3668C221.807 21.5238 221.678 20.8212 221.42 20.2592C221.186 19.6972 220.835 19.2757 220.367 18.9946C219.922 18.7136 219.395 18.5731 218.786 18.5731C218.13 18.5731 217.498 18.7956 216.889 19.2405C216.304 19.6855 215.824 20.4114 215.449 21.4184C215.074 22.4253 214.887 23.7953 214.887 25.5282C214.887 26.9567 215.109 28.1627 215.554 29.1462C216.023 30.1298 216.655 30.8791 217.451 31.3943C218.271 31.8861 219.207 32.132 220.261 32.132C221.245 32.132 222.1 31.9563 222.825 31.6051C223.575 31.2304 224.242 30.7035 224.828 30.0244L225.6 30.6215C225.132 31.5114 224.582 32.2608 223.95 32.8696C223.317 33.4551 222.591 33.9 221.772 34.2044C220.952 34.5089 220.004 34.6611 218.926 34.6611ZM232.458 34.6611C231.194 34.6611 230.128 34.2981 229.262 33.5722C228.419 32.8228 227.997 31.7573 227.997 30.3756C227.997 29.6497 228.161 28.9706 228.489 28.3383C228.817 27.6826 229.414 27.0737 230.281 26.5117C231.147 25.9497 232.388 25.4345 234.004 24.9662C234.543 24.8022 235.093 24.6383 235.655 24.4744C236.24 24.3105 236.837 24.1465 237.446 23.9826C238.079 23.8187 238.723 23.6548 239.378 23.4908V24.5446C238.488 24.8257 237.669 25.0832 236.919 25.3174C236.193 25.5516 235.549 25.7741 234.987 25.9848C234.144 26.2658 233.489 26.6054 233.02 27.0035C232.552 27.4016 232.236 27.8348 232.072 28.3032C231.908 28.7481 231.826 29.2165 231.826 29.7082C231.826 30.6215 232.06 31.2772 232.529 31.6753C232.997 32.0734 233.582 32.2725 234.285 32.2725C234.683 32.2725 235.058 32.2256 235.409 32.132C235.784 32.0149 236.205 31.8041 236.674 31.4997C237.165 31.1718 237.762 30.7152 238.465 30.1298L238.851 31.7456H237.657C237.095 32.4013 236.545 32.9516 236.006 33.3965C235.491 33.818 234.952 34.1342 234.39 34.3449C233.828 34.5557 233.184 34.6611 232.458 34.6611ZM240.748 34.5557C239.694 34.5557 238.875 34.2747 238.289 33.7127C237.704 33.1272 237.376 32.3427 237.306 31.3592V31.2187V22.8937C237.306 21.7696 237.212 20.9032 237.025 20.2943C236.837 19.6855 236.521 19.2522 236.076 18.9946C235.631 18.7371 235.034 18.6083 234.285 18.6083C233.887 18.6083 233.454 18.6551 232.985 18.7488C232.54 18.819 232.013 18.9595 231.405 19.1703L232.985 18.0814L232.423 20.8212C232.33 21.6174 232.095 22.2029 231.721 22.5776C231.346 22.9288 230.889 23.1045 230.351 23.1045C229.836 23.1045 229.426 22.9757 229.121 22.7181C228.817 22.4605 228.618 22.0858 228.524 21.594C228.735 20.2592 229.461 19.1937 230.702 18.3975C231.967 17.6013 233.594 17.2032 235.585 17.2032C236.896 17.2032 237.962 17.414 238.781 17.8355C239.601 18.257 240.198 18.9127 240.573 19.8026C240.971 20.6924 241.17 21.875 241.17 23.3503V31.0782C241.17 31.6402 241.263 32.0383 241.451 32.2725C241.638 32.5067 241.884 32.6237 242.188 32.6237C242.446 32.6237 242.668 32.5652 242.856 32.4481C243.043 32.3076 243.254 32.0968 243.488 31.8158L244.155 32.3779C243.781 33.1272 243.312 33.6775 242.75 34.0288C242.212 34.3801 241.544 34.5557 240.748 34.5557ZM245.175 34.1693V33.0101L248.653 32.413H250.268L253.816 33.0101V34.1693H245.175ZM247.458 34.1693C247.482 33.701 247.505 33.1623 247.528 32.5535C247.552 31.9446 247.564 31.3124 247.564 30.6567C247.587 29.9775 247.599 29.3101 247.599 28.6544C247.599 27.9753 247.599 27.3548 247.599 26.7927V11.3722L245.07 10.9507V9.8618L251.146 8.3513L251.638 8.6674L251.498 14.4282V26.7225C251.498 27.3079 251.498 27.9402 251.498 28.6193C251.498 29.275 251.498 29.9424 251.498 30.6215C251.521 31.3006 251.533 31.9446 251.533 32.5535C251.556 33.1623 251.58 33.701 251.603 34.1693H247.458ZM249.496 29.4624V27.5655H249.671L254.413 22.6127L259.19 17.6598H261.193L249.496 29.4624ZM257.856 34.1693L252.938 25.1067L255.748 22.4722L261.403 32.6237L263.511 33.0101V34.1693H257.856ZM254.835 18.819V17.6598H262.633V18.819L259.05 19.3459L258.207 19.4513L254.835 18.819ZM264.766 34.1693V33.0101L268.279 32.413H270.316L274.11 33.0101V34.1693H264.766ZM267.014 34.1693C267.061 33.4434 267.085 32.6589 267.085 31.8158C267.108 30.9728 267.12 30.1298 267.12 29.2867C267.143 28.4203 267.155 27.5889 267.155 26.7927V19.3459H264.626V17.976L268.384 17.414L267.155 18.3272L267.225 17.7301C267.319 16.4421 267.471 15.3181 267.682 14.3579C267.916 13.3978 268.232 12.5548 268.63 11.8288C269.028 11.1029 269.543 10.4472 270.176 9.8618C270.878 9.2061 271.651 8.7377 272.494 8.4567C273.337 8.1523 274.192 8 275.058 8C275.901 8 276.662 8.164 277.342 8.4918C278.044 8.8197 278.489 9.3466 278.676 10.0725C278.653 10.5877 278.442 11.0209 278.044 11.3722C277.669 11.7 277.166 11.864 276.534 11.864C276.018 11.864 275.55 11.7352 275.129 11.4776C274.707 11.22 274.262 10.7867 273.794 10.1779L272.564 8.9485V8.6323H274.461V8.8782C274.063 8.9485 273.688 9.0773 273.337 9.2646C273.009 9.4519 272.681 9.7915 272.354 10.2833C272.073 10.7048 271.838 11.1614 271.651 11.6532C271.464 12.145 271.311 12.7187 271.194 13.3744C271.101 14.0301 271.042 14.8029 271.019 15.6928C270.995 16.5826 271.007 17.613 271.054 18.7839V26.7927C271.054 27.5889 271.054 28.4203 271.054 29.2867C271.077 30.1298 271.101 30.9728 271.124 31.8158C271.148 32.6589 271.171 33.4434 271.194 34.1693H267.014ZM269.122 19.3459V17.6598H275.234V19.3459H269.122ZM281.409 34.6611C280.145 34.6611 279.079 34.2981 278.213 33.5722C277.37 32.8228 276.948 31.7573 276.948 30.3756C276.948 29.6497 277.112 28.9706 277.44 28.3383C277.768 27.6826 278.365 27.0737 279.231 26.5117C280.098 25.9497 281.339 25.4345 282.955 24.9662C283.493 24.8022 284.044 24.6383 284.606 24.4744C285.191 24.3105 285.788 24.1465 286.397 23.9826C287.029 23.8187 287.673 23.6548 288.329 23.4908V24.5446C287.439 24.8257 286.62 25.0832 285.87 25.3174C285.144 25.5516 284.5 25.7741 283.938 25.9848C283.095 26.2658 282.439 26.6054 281.971 27.0035C281.503 27.4016 281.187 27.8348 281.023 28.3032C280.859 28.7481 280.777 29.2165 280.777 29.7082C280.777 30.6215 281.011 31.2772 281.479 31.6753C281.948 32.0734 282.533 32.2725 283.236 32.2725C283.634 32.2725 284.008 32.2256 284.36 32.132C284.734 32.0149 285.156 31.8041 285.624 31.4997C286.116 31.1718 286.713 30.7152 287.416 30.1298L287.802 31.7456H286.608C286.046 32.4013 285.495 32.9516 284.957 33.3965C284.442 33.818 283.903 34.1342 283.341 34.3449C282.779 34.5557 282.135 34.6611 281.409 34.6611ZM289.699 34.5557C288.645 34.5557 287.826 34.2747 287.24 33.7127C286.655 33.1272 286.327 32.3427 286.257 31.3592V31.2187V22.8937C286.257 21.7696 286.163 20.9032 285.976 20.2943C285.788 19.6855 285.472 19.2522 285.027 18.9946C284.582 18.7371 283.985 18.6083 283.236 18.6083C282.838 18.6083 282.404 18.6551 281.936 18.7488C281.491 18.819 280.964 18.9595 280.355 19.1703L281.936 18.0814L281.374 20.8212C281.28 21.6174 281.046 22.2029 280.671 22.5776C280.297 22.9288 279.84 23.1045 279.301 23.1045C278.786 23.1045 278.376 22.9757 278.072 22.7181C277.768 22.4605 277.569 22.0858 277.475 21.594C277.686 20.2592 278.412 19.1937 279.653 18.3975C280.917 17.6013 282.545 17.2032 284.535 17.2032C285.847 17.2032 286.912 17.414 287.732 17.8355C288.551 18.257 289.149 18.9127 289.523 19.8026C289.921 20.6924 290.12 21.875 290.12 23.3503V31.0782C290.12 31.6402 290.214 32.0383 290.401 32.2725C290.589 32.5067 290.835 32.6237 291.139 32.6237C291.397 32.6237 291.619 32.5652 291.807 32.4481C291.994 32.3076 292.205 32.0968 292.439 31.8158L293.106 32.3779C292.732 33.1272 292.263 33.6775 291.701 34.0288C291.163 34.3801 290.495 34.5557 289.699 34.5557ZM300.131 34.6611C299.1 34.6611 298.152 34.544 297.285 34.3098C296.442 34.0756 295.588 33.7127 294.721 33.2209L294.791 29.0408H296.478L297.637 33.5722H296.161V32.0968C296.77 32.4949 297.379 32.7994 297.988 33.0101C298.62 33.1975 299.346 33.2911 300.166 33.2911C300.915 33.2911 301.547 33.1858 302.063 32.975C302.578 32.7642 302.964 32.4598 303.222 32.0617C303.503 31.6636 303.643 31.207 303.643 30.6918C303.643 29.9424 303.362 29.357 302.8 28.9355C302.262 28.4905 301.489 28.0807 300.482 27.706L299.007 27.2143C298.21 26.9098 297.496 26.5469 296.864 26.1253C296.255 25.7038 295.763 25.1886 295.389 24.5798C295.037 23.9475 294.862 23.1981 294.862 22.3317C294.862 21.3715 295.096 20.5051 295.564 19.7323C296.056 18.9595 296.77 18.3507 297.707 17.9057C298.644 17.4374 299.791 17.2032 301.149 17.2032C302.109 17.2032 302.976 17.3203 303.749 17.5545C304.545 17.7652 305.318 18.0931 306.067 18.538L305.927 22.3668H304.276L303.152 18.3624H304.627V19.7674C304.065 19.3459 303.503 19.0415 302.941 18.8541C302.402 18.6668 301.782 18.5731 301.079 18.5731C300.142 18.5731 299.405 18.7839 298.866 19.2054C298.351 19.6269 298.093 20.2007 298.093 20.9266C298.093 21.676 298.339 22.2614 298.831 22.6829C299.346 23.081 300.142 23.4791 301.22 23.8772L302.449 24.2988C303.409 24.65 304.229 25.0598 304.908 25.5282C305.587 25.9731 306.102 26.5117 306.453 27.144C306.805 27.7763 306.98 28.5256 306.98 29.3921C306.98 30.4225 306.711 31.3358 306.172 32.132C305.657 32.9282 304.884 33.5487 303.854 33.9937C302.847 34.4386 301.606 34.6611 300.131 34.6611ZM313.05 19.3459V17.6598H319.162V19.3459H313.05ZM315.334 34.6611C313.999 34.6611 312.945 34.3215 312.172 33.6424C311.399 32.9399 311.013 31.8627 311.013 30.4108C311.013 29.8253 311.013 29.275 311.013 28.7598C311.036 28.2446 311.048 27.6241 311.048 26.8981V19.3459H308.519V17.976L312.524 17.414L310.978 18.5029L312.945 12.6367H315.123L314.982 18.257V18.7839V30.1298C314.982 30.9962 315.146 31.6168 315.474 31.9915C315.825 32.3661 316.282 32.5535 316.844 32.5535C317.266 32.5535 317.64 32.4832 317.968 32.3427C318.319 32.1788 318.671 31.9329 319.022 31.6051L319.724 32.3076C319.443 32.7994 319.092 33.2209 318.671 33.5722C318.273 33.9234 317.792 34.1927 317.23 34.3801C316.692 34.5674 316.06 34.6611 315.334 34.6611Z" fill="white"/>
<path d="M77.44 56.6611V46.1651H80.56C81.2747 46.1651 81.8987 46.2504 82.432 46.4211C82.976 46.5918 83.3973 46.8638 83.696 47.2371C84.0053 47.6104 84.16 48.1064 84.16 48.7251C84.16 49.2478 84.0267 49.7224 83.76 50.1491C83.504 50.5651 83.1253 50.8531 82.624 51.0131V51.0771C83.2533 51.1944 83.7653 51.4611 84.16 51.8771C84.5653 52.2931 84.768 52.8638 84.768 53.5891C84.768 54.2718 84.5973 54.8424 84.256 55.3011C83.9253 55.7598 83.4613 56.1011 82.864 56.3251C82.2667 56.5491 81.5733 56.6611 80.784 56.6611H77.44ZM78.768 50.6291H80.32C81.216 50.6291 81.8613 50.4744 82.256 50.1651C82.6507 49.8558 82.848 49.4344 82.848 48.9011C82.848 48.2931 82.64 47.8611 82.224 47.6051C81.8187 47.3491 81.2053 47.2211 80.384 47.2211H78.768V50.6291ZM78.768 55.6051H80.592C81.4987 55.6051 82.2027 55.4398 82.704 55.1091C83.2053 54.7678 83.456 54.2451 83.456 53.5411C83.456 52.8904 83.2053 52.4158 82.704 52.1171C82.2133 51.8078 81.5093 51.6531 80.592 51.6531H78.768V55.6051ZM86.6275 60.0051C86.4568 60.0051 86.2915 59.9891 86.1315 59.9571C85.9822 59.9251 85.8435 59.8878 85.7155 59.8451L85.9715 58.8051C86.0568 58.8264 86.1528 58.8478 86.2595 58.8691C86.3662 58.9011 86.4675 58.9171 86.5635 58.9171C87.0008 58.9171 87.3635 58.7571 87.6515 58.4371C87.9395 58.1278 88.1635 57.7331 88.3235 57.2531L88.4995 56.6771L85.3795 48.8851H86.7395L88.3235 53.1891C88.4408 53.5198 88.5635 53.8771 88.6915 54.2611C88.8302 54.6451 88.9582 55.0184 89.0755 55.3811H89.1395C89.2568 55.0291 89.3688 54.6611 89.4755 54.2771C89.5822 53.8931 89.6888 53.5304 89.7955 53.1891L91.1875 48.8851H92.4675L89.5395 57.3011C89.3582 57.8131 89.1395 58.2718 88.8835 58.6771C88.6382 59.0824 88.3288 59.4024 87.9555 59.6371C87.5928 59.8824 87.1502 60.0051 86.6275 60.0051ZM99.1074 50.7891L98.6114 52.3891H101.763L101.267 50.7891C101.075 50.2024 100.894 49.6211 100.723 49.0451C100.553 48.4584 100.382 47.8611 100.211 47.2531H100.147C99.9874 47.8611 99.822 48.4584 99.6514 49.0451C99.4807 49.6211 99.2994 50.2024 99.1074 50.7891ZM95.9074 56.6611L99.4594 46.1651H100.963L104.515 56.6611H103.091L102.099 53.4611H98.2754L97.2674 56.6611H95.9074ZM107.445 56.6611L104.645 48.8851H106.005L107.477 53.3011C107.594 53.6851 107.712 54.0691 107.829 54.4531C107.957 54.8371 108.08 55.2158 108.197 55.5891H108.261C108.378 55.2158 108.496 54.8371 108.613 54.4531C108.741 54.0691 108.858 53.6851 108.965 53.3011L110.437 48.8851H111.733L108.981 56.6611H107.445ZM114.713 56.8531C114.063 56.8531 113.519 56.6611 113.081 56.2771C112.655 55.8824 112.441 55.3384 112.441 54.6451C112.441 53.7918 112.82 53.1411 113.577 52.6931C114.345 52.2344 115.556 51.9144 117.209 51.7331C117.209 51.4024 117.161 51.0878 117.065 50.7891C116.98 50.4904 116.82 50.2504 116.585 50.0691C116.361 49.8771 116.036 49.7811 115.609 49.7811C115.161 49.7811 114.74 49.8664 114.345 50.0371C113.951 50.2078 113.599 50.3998 113.289 50.6131L112.777 49.7011C113.14 49.4664 113.583 49.2424 114.105 49.0291C114.639 48.8051 115.215 48.6931 115.833 48.6931C116.783 48.6931 117.471 48.9864 117.897 49.5731C118.324 50.1491 118.537 50.9224 118.537 51.8931V56.6611H117.449L117.337 55.7331H117.289C116.927 56.0318 116.527 56.2931 116.089 56.5171C115.663 56.7411 115.204 56.8531 114.713 56.8531ZM115.097 55.7971C115.471 55.7971 115.823 55.7064 116.153 55.5251C116.484 55.3438 116.836 55.0878 117.209 54.7571V52.5971C115.919 52.7571 115.012 52.9971 114.489 53.3171C113.977 53.6371 113.721 54.0478 113.721 54.5491C113.721 54.9864 113.855 55.3064 114.121 55.5091C114.388 55.7011 114.713 55.7971 115.097 55.7971ZM123.64 56.8531C122.669 56.8531 121.891 56.5011 121.304 55.7971C120.717 55.0824 120.424 54.0798 120.424 52.7891C120.424 51.9464 120.579 51.2211 120.888 50.6131C121.208 49.9944 121.624 49.5198 122.136 49.1891C122.659 48.8584 123.213 48.6931 123.8 48.6931C124.248 48.6931 124.637 48.7731 124.968 48.9331C125.299 49.0931 125.635 49.3118 125.976 49.5891L125.912 48.2611V45.2691H127.24V56.6611H126.152L126.04 55.7491H125.992C125.693 56.0478 125.341 56.3091 124.936 56.5331C124.531 56.7464 124.099 56.8531 123.64 56.8531ZM123.928 55.7491C124.611 55.7491 125.272 55.3918 125.912 54.6771V50.6131C125.581 50.3144 125.261 50.1064 124.952 49.9891C124.653 49.8611 124.344 49.7971 124.024 49.7971C123.608 49.7971 123.229 49.9251 122.888 50.1811C122.557 50.4264 122.291 50.7731 122.088 51.2211C121.885 51.6584 121.784 52.1758 121.784 52.7731C121.784 53.7011 121.971 54.4318 122.344 54.9651C122.717 55.4878 123.245 55.7491 123.928 55.7491ZM131.651 56.8531C131 56.8531 130.456 56.6611 130.019 56.2771C129.592 55.8824 129.379 55.3384 129.379 54.6451C129.379 53.7918 129.758 53.1411 130.515 52.6931C131.283 52.2344 132.494 51.9144 134.147 51.7331C134.147 51.4024 134.099 51.0878 134.003 50.7891C133.918 50.4904 133.758 50.2504 133.523 50.0691C133.299 49.8771 132.974 49.7811 132.547 49.7811C132.099 49.7811 131.678 49.8664 131.283 50.0371C130.888 50.2078 130.536 50.3998 130.227 50.6131L129.715 49.7011C130.078 49.4664 130.52 49.2424 131.043 49.0291C131.576 48.8051 132.152 48.6931 132.771 48.6931C133.72 48.6931 134.408 48.9864 134.835 49.5731C135.262 50.1491 135.475 50.9224 135.475 51.8931V56.6611H134.387L134.275 55.7331H134.227C133.864 56.0318 133.464 56.2931 133.027 56.5171C132.6 56.7411 132.142 56.8531 131.651 56.8531ZM132.035 55.7971C132.408 55.7971 132.76 55.7064 133.091 55.5251C133.422 55.3438 133.774 55.0878 134.147 54.7571V52.5971C132.856 52.7571 131.95 52.9971 131.427 53.3171C130.915 53.6371 130.659 54.0478 130.659 54.5491C130.659 54.9864 130.792 55.3064 131.059 55.5091C131.326 55.7011 131.651 55.7971 132.035 55.7971Z" fill="#FAF9F5"/>
</svg>
